<?xml version="1.0" encoding="utf-8"?>
<!-- Generator: Adobe Illustrator 17.0.2, SVG Export Plug-In . SVG Version: 6.00 Build 0)  -->
<!DOCTYPE svg PUBLIC "-//W3C//DTD SVG 1.1//EN" "http://www.w3.org/Graphics/SVG/1.1/DTD/svg11.dtd">
<svg version="1.1" id="Layer_1" xmlns="http://www.w3.org/2000/svg" xmlns:xlink="http://www.w3.org/1999/xlink" x="0px" y="0px"
	 width="782.6px" height="196.8px" viewBox="0 0 782.6 196.8" enable-background="new 0 0 782.6 196.8" xml:space="preserve">
<path fill="#FF2B06" d="M10.6,172.4L3,161.5h7.2l4.1,6l4-6h7l-7.6,10.8l8.5,12.2H19l-4.8-7.3l-4.8,7.3H2.3L10.6,172.4z"/>
<path fill="#FFFFFF" d="M56.2,170.9H33.7v-4.8h22.5V170.9z M56.2,180.4H33.7v-4.8h22.5V180.4z"/>
<path fill="#FFFFFF" d="M73.4,158h-6.3v-5.2h6.3V158z M67.1,161.5h6.3v23h-6.3V161.5z"/>
<path fill="#FFFFFF" d="M77.5,161.5h6v3.2h0.1c1.6-2.6,4.4-3.8,7-3.8c6.7,0,8.4,3.8,8.4,9.5v14.2h-6.3v-13c0-3.8-1.1-5.7-4.1-5.7
	c-3.4,0-4.9,1.9-4.9,6.6v12.1h-6.3V161.5z"/>
<path fill="#FFFFFF" d="M119.4,181.6L119.4,181.6c-1.6,2.5-4.1,3.6-7.1,3.6c-6.9,0-10.3-6-10.3-12.3c0-6.2,3.4-11.9,10.2-11.9
	c2.7,0,5.4,1.2,6.9,3.4h0h0.1v-11.6h6.3v31.8h-6V181.6z M113.9,165.7c-4.1,0-5.6,3.6-5.6,7.3c0,3.6,1.6,7.4,5.6,7.4
	c4.2,0,5.4-3.6,5.4-7.4C119.3,169.2,118,165.7,113.9,165.7z"/>
<path fill="#FFFFFF" d="M134.5,174.6c0.2,4,2.1,5.8,5.7,5.8c2.5,0,4.6-1.6,5-3h5.6c-1.8,5.4-5.6,7.7-10.8,7.7
	c-7.3,0-11.8-5-11.8-12.1c0-6.9,4.8-12.2,11.8-12.2c7.8,0,11.6,6.6,11.2,13.7H134.5z M144.8,170.6c-0.6-3.2-2-4.9-5-4.9
	c-4,0-5.2,3.1-5.3,4.9H144.8z"/>
<path fill="#FFFFFF" d="M154,161.5h6v2.9h0.1c1.5-2.4,4-3.6,6.9-3.6c7.2,0,10.5,5.8,10.5,12.4c0,6.1-3.4,11.9-10.1,11.9
	c-2.8,0-5.4-1.2-6.9-3.5h-0.1v10.9H154V161.5z M171.1,173.1c0-3.6-1.5-7.4-5.5-7.4c-4.1,0-5.5,3.7-5.5,7.4s1.4,7.3,5.5,7.3
	C169.7,180.4,171.1,176.8,171.1,173.1z"/>
<path fill="#FFFFFF" d="M185.5,174.6c0.2,4,2.1,5.8,5.7,5.8c2.5,0,4.6-1.6,5-3h5.6c-1.8,5.4-5.6,7.7-10.8,7.7
	c-7.3,0-11.8-5-11.8-12.1c0-6.9,4.8-12.2,11.8-12.2c7.8,0,11.6,6.6,11.2,13.7H185.5z M195.8,170.6c-0.6-3.2-2-4.9-5-4.9
	c-4,0-5.2,3.1-5.3,4.9H195.8z"/>
<path fill="#FFFFFF" d="M204.9,161.5h6v3.2h0.1c1.6-2.6,4.4-3.8,7-3.8c6.7,0,8.4,3.8,8.4,9.5v14.2h-6.3v-13c0-3.8-1.1-5.7-4.1-5.7
	c-3.4,0-4.9,1.9-4.9,6.6v12.1h-6.3V161.5z"/>
<path fill="#FFFFFF" d="M246.8,181.6L246.8,181.6c-1.6,2.5-4.1,3.6-7.1,3.6c-6.9,0-10.3-6-10.3-12.3c0-6.2,3.4-11.9,10.2-11.9
	c2.7,0,5.4,1.2,6.9,3.4h0h0.1v-11.6h6.3v31.8h-6V181.6z M241.3,165.7c-4.1,0-5.6,3.6-5.6,7.3c0,3.6,1.6,7.4,5.6,7.4
	c4.2,0,5.4-3.6,5.4-7.4C246.8,169.2,245.4,165.7,241.3,165.7z"/>
<path fill="#FFFFFF" d="M261.9,174.6c0.2,4,2.1,5.8,5.7,5.8c2.5,0,4.6-1.6,5-3h5.6c-1.8,5.4-5.6,7.7-10.8,7.7
	c-7.3,0-11.8-5-11.8-12.1c0-6.9,4.8-12.2,11.8-12.2c7.8,0,11.6,6.6,11.2,13.7H261.9z M272.2,170.6c-0.6-3.2-2-4.9-5-4.9
	c-4,0-5.2,3.1-5.3,4.9H272.2z"/>
<path fill="#FFFFFF" d="M281.4,161.5h6v3.2h0.1c1.6-2.6,4.4-3.8,7-3.8c6.7,0,8.4,3.8,8.4,9.5v14.2h-6.3v-13c0-3.8-1.1-5.7-4.1-5.7
	c-3.4,0-4.9,1.9-4.9,6.6v12.1h-6.3V161.5z"/>
<path fill="#FFFFFF" d="M314.9,161.5h4.6v4.2h-4.6v11.4c0,2.1,0.5,2.7,2.7,2.7c0.7,0,1.3,0,2-0.2v4.9c-1.1,0.2-2.4,0.2-3.7,0.2
	c-3.9,0-7.3-0.9-7.3-5.5v-13.6h-3.8v-4.2h3.8v-6.9h6.3V161.5z"/>
<path fill="#FFFFFF" d="M321.8,152.8h6.3v31.8h-6.3V152.8z"/>
<path fill="#FFFFFF" d="M343.6,187.4c-1.4,3.7-3.6,5.2-7.9,5.2c-1.3,0-2.6-0.1-3.9-0.2v-5.2c1.2,0.1,2.4,0.3,3.7,0.2
	c2.2-0.2,2.9-2.5,2.2-4.3l-8.1-21.6h6.8l5.2,15.8h0.1l5-15.8h6.5L343.6,187.4z"/>
<path fill="#FFFFFF" d="M377.1,160.9c7.3,0,11.9,4.8,11.9,12.2c0,7.3-4.7,12.1-11.9,12.1c-7.2,0-11.9-4.8-11.9-12.1
	C365.2,165.7,369.9,160.9,377.1,160.9z M377.1,180.4c4.3,0,5.6-3.7,5.6-7.3c0-3.7-1.3-7.4-5.6-7.4c-4.3,0-5.6,3.7-5.6,7.4
	C371.6,176.7,372.8,180.4,377.1,180.4z"/>
<path fill="#FFFFFF" d="M391.4,161.5h6v4.3h0.1c1.2-2.9,4.3-4.9,7.3-4.9c0.4,0,1,0.1,1.4,0.2v5.9c-0.6-0.1-1.5-0.2-2.3-0.2
	c-4.6,0-6.2,3.3-6.2,7.4v10.4h-6.3V161.5z"/>
<path fill="#FFFFFF" d="M429.9,183.1c0,3.8-1.3,10.2-11.9,10.2c-4.5,0-9.8-2.1-10.1-7.4h6.3c0.6,2.4,2.5,3.2,4.7,3.2
	c3.5,0,5.1-2.4,5.1-5.7v-3h-0.1c-1.4,2.4-4.1,3.6-6.9,3.6c-6.9,0-9.8-5.3-9.8-11.6c0-6,3.4-11.4,9.9-11.4c3,0,5.3,1,6.9,3.7h0.1
	v-3.1h6V183.1z M423.9,172.7c0-3.7-1.3-7.1-5.4-7.1c-3.6,0-5.1,3.1-5.1,6.5c0,3.3,1.2,6.9,5.1,6.9
	C422.1,179.1,423.9,176,423.9,172.7z"/>
<path fill="#FFFFFF" d="M432.9,168.6c0.4-5.9,5.7-7.7,10.8-7.7c4.6,0,10.1,1,10.1,6.5v12c0,2.1,0.2,4.2,0.8,5.1h-6.4
	c-0.2-0.7-0.4-1.5-0.4-2.2c-2,2.1-4.9,2.8-7.7,2.8c-4.4,0-7.8-2.2-7.8-6.9c0-5.2,3.9-6.5,7.8-7c3.9-0.6,7.5-0.4,7.5-3
	c0-2.7-1.9-3.1-4.1-3.1c-2.4,0-4,1-4.2,3.5H432.9z M447.5,173.3c-1.1,0.9-3.3,1-5.3,1.3c-2,0.4-3.7,1.1-3.7,3.4
	c0,2.4,1.8,2.9,3.9,2.9c4.9,0,5.1-3.9,5.1-5.3V173.3z"/>
<path fill="#FFFFFF" d="M457.8,161.5h6v3.2h0.1c1.6-2.6,4.4-3.8,7-3.8c6.7,0,8.4,3.8,8.4,9.5v14.2h-6.3v-13c0-3.8-1.1-5.7-4.1-5.7
	c-3.4,0-4.9,1.9-4.9,6.6v12.1h-6.3V161.5z"/>
<path fill="#FFFFFF" d="M489,158h-6.3v-5.2h6.3V158z M482.6,161.5h6.3v23h-6.3V161.5z"/>
<path fill="#FFFFFF" d="M491.6,179.8l12-13.5h-11.1v-4.8h19.4v4.8l-12,13.5h12.8v4.8h-21.1V179.8z"/>
<path fill="#FFFFFF" d="M520.5,174.6c0.2,4,2.1,5.8,5.7,5.8c2.5,0,4.6-1.6,5-3h5.6c-1.8,5.4-5.6,7.7-10.8,7.7
	c-7.3,0-11.8-5-11.8-12.1c0-6.9,4.8-12.2,11.8-12.2c7.8,0,11.6,6.6,11.2,13.7H520.5z M530.8,170.6c-0.6-3.2-2-4.9-5-4.9
	c-4,0-5.2,3.1-5.3,4.9H530.8z"/>
<path fill="#FFFFFF" d="M556.3,181.6L556.3,181.6c-1.6,2.5-4.1,3.6-7.1,3.6c-6.9,0-10.3-6-10.3-12.3c0-6.2,3.4-11.9,10.2-11.9
	c2.7,0,5.4,1.2,6.9,3.4h0h0.1v-11.6h6.3v31.8h-6V181.6z M550.8,165.7c-4.1,0-5.6,3.6-5.6,7.3c0,3.6,1.6,7.4,5.6,7.4
	c4.2,0,5.4-3.6,5.4-7.4C556.3,169.2,554.9,165.7,550.8,165.7z"/>
<path fill="#FFFFFF" d="M585.4,158.6h-9.5v-5.9h26v5.9h-9.5v25.9h-7V158.6z"/>
<path fill="#FFFFFF" d="M604.7,152.8h23.8v5.9h-16.8v6.8h15.4v5.4h-15.4v7.8h17.1v5.9h-24.1V152.8z"/>
<path fill="#FFFFFF" d="M631.7,152.8h13.7c8.2,0,14.4,5.2,14.4,15.7c0,9.2-4.7,16.1-14.4,16.1h-13.7V152.8z M638.7,178.7h6.2
	c4,0,7.9-2.5,7.9-9.5c0-6.4-2.2-10.5-9.2-10.5h-5V178.7z"/>
<path fill="#FFFFFF" d="M679.9,174.6c0.2,4,2.1,5.8,5.7,5.8c2.5,0,4.6-1.6,5-3h5.6c-1.8,5.4-5.6,7.7-10.8,7.7
	c-7.3,0-11.8-5-11.8-12.1c0-6.9,4.8-12.2,11.8-12.2c7.8,0,11.6,6.6,11.2,13.7H679.9z M690.1,170.6c-0.6-3.2-2-4.9-5-4.9
	c-4,0-5.2,3.1-5.3,4.9H690.1z"/>
<path fill="#FFFFFF" d="M711.1,184.5h-7l-7.9-23h6.6l4.9,15.7h0.1l4.9-15.7h6.3L711.1,184.5z"/>
<path fill="#FFFFFF" d="M725,174.6c0.2,4,2.1,5.8,5.7,5.8c2.5,0,4.6-1.6,5-3h5.6c-1.8,5.4-5.6,7.7-10.8,7.7c-7.3,0-11.8-5-11.8-12.1
	c0-6.9,4.8-12.2,11.8-12.2c7.8,0,11.6,6.6,11.2,13.7H725z M735.3,170.6c-0.6-3.2-2-4.9-5-4.9c-4,0-5.2,3.1-5.3,4.9H735.3z"/>
<path fill="#FFFFFF" d="M744.4,161.5h6v3.2h0.1c1.6-2.6,4.4-3.8,7-3.8c6.7,0,8.4,3.8,8.4,9.5v14.2h-6.3v-13c0-3.8-1.1-5.7-4.1-5.7
	c-3.4,0-4.9,1.9-4.9,6.6v12.1h-6.3V161.5z"/>
<path fill="#FFFFFF" d="M777.9,161.5h4.6v4.2h-4.6v11.4c0,2.1,0.5,2.7,2.7,2.7c0.7,0,1.3,0,2-0.2v4.9c-1.1,0.2-2.4,0.2-3.7,0.2
	c-3.9,0-7.3-0.9-7.3-5.5v-13.6h-3.8v-4.2h3.8v-6.9h6.3V161.5z"/>
<g>
	<g>
		<path fill="#FF2B06" d="M29.7,47.6H0V20.5h91.9v27.1H62.2v78.7H29.7V47.6z"/>
		<path fill="#FF2B06" d="M96.9,20.5h89.2v27.1h-56.6v13.2h56.6V86h-56.6v13.2h56.6v27.1H96.9V20.5z"/>
		<path fill="#FF2B06" d="M191.6,20.5h53.5c35.3,0,47.7,26.1,47.7,52.8c0,32.5-17.2,53.1-54.1,53.1h-47.1V20.5z M224.2,99.2H237
			c20.3,0,23.3-16.5,23.3-26.4c0-6.7-2.1-25.2-25.7-25.2h-10.4V99.2z"/>
	</g>
	<g>
		<g>
			<path fill="#FF2B06" d="M339.7,85.5L329.8,69l-9.7,16.5h-23.9l22.7-33.3L297,20.3h23.9l8.8,15.8l9.1-15.8h23.9l-21.8,31.9
				l22.7,33.3H339.7z"/>
		</g>
	</g>
</g>
<text transform="matrix(1 0 0 1 377.5576 126.1387)" fill="#FFFFFF" font-family="'Helvetica'" font-size="146.9047">UofT</text>
</svg>
